# xmcd
#
# Track frame offsets:
#        182
#        29370
#        41145
#        54372
#        66077
#        76255
#        89577
#        103325
#        120762
#        139785
#        156217
#        168100
#        184320
#        196050
#        209307
#        222192
#        238300
#        251860
#        266665
#        276315
#
# Disc length: 3801 seconds
#
# Revision: 0
# Processed by: cddbd v1.5.1PL0 Copyright (c) Steve Scherf et al.
# Submitted via: ExactAudioCopy v0.95a5
#
DISCID=270ed714
DTITLE=Ray Charles - Greatest Hit Selection
DYEAR=1900
DGENRE=Blues
TTITLE0=What'd I say
TTITLE1=Hallelujah I love her so
TTITLE2=I got a woman
TTITLE3=Lonely avenue
TTITLE4=Yes indeed
TTITLE5=Crying time
TTITLE6=A fool for you
TTITLE7=Ruby
TTITLE8=I can't stop loving you
TTITLE9=Georgia on my mind
TTITLE10=Don't set me free
TTITLE11=Without love
TTITLE12=Baby don't you cry
TTITLE13=Take these chains from my heart
TTITLE14=Unchain my heart
TTITLE15=Your cheating heart
TTITLE16=You are my sunshine
TTITLE17=You don't know me
TTITLE18=Busted
TTITLE19=Hit the road jack
EXTD=
EXTT0=
EXTT1=
EXTT2=
EXTT3=
EXTT4=
EXTT5=
EXTT6=
EXTT7=
EXTT8=
EXTT9=
EXTT10=
EXTT11=
EXTT12=
EXTT13=
EXTT14=
EXTT15=
EXTT16=
EXTT17=
EXTT18=
EXTT19=
PLAYORDER=
